<svg xmlns="http://www.w3.org/2000/svg" viewBox="0 0 39 39"><defs><style>.cls-1{fill:#17c8fe;}.cls-2{fill:none;}</style></defs><title>ic_dnero_ark</title><g id="Layer_2" data-name="Layer 2"><g id="Layer_1-2" data-name="Layer 1"><path class="cls-1" d="M31,24.83a2.76,2.76,0,0,0-2.29-1.2H27l5.9-9a.51.51,0,0,0,0-.52.52.52,0,0,0-.9,0l-8.63,13.2h-7.7L7,14.05a.52.52,0,0,0-.9,0,.51.51,0,0,0,0,.52l5.9,9H10.32A2.74,2.74,0,0,0,8,24.84l-3.77,5.7a1.49,1.49,0,0,0-.26.84v2.07A1.55,1.55,0,0,0,5.55,35h27.9A1.55,1.55,0,0,0,35,33.45V31.38a1.46,1.46,0,0,0-.26-.83Zm-18.88-.16h.63l2.21,3.38a.54.54,0,0,0,.44.23h8.26a.54.54,0,0,0,.44-.23l2.21-3.38h1.15l.49,1.12-.16.08A1.55,1.55,0,0,0,27,27.75l.55,1.65a1.56,1.56,0,0,0,1.22,1.05l1.29.21.54,1.24H8.92Zm-7,6.45,3.77-5.71a1.7,1.7,0,0,1,1.43-.74H11L7.8,31.9H5.61A.56.56,0,0,1,5,31.38a.43.43,0,0,1,.09-.26ZM34,33.45a.52.52,0,0,1-.52.52H5.55A.52.52,0,0,1,5,33.45v-.63a1.66,1.66,0,0,0,.58.11H33.39a1.66,1.66,0,0,0,.58-.11Zm-.58-1.55H31.72L30.88,30a.51.51,0,0,0-.47-.31l-1.48-.24a.54.54,0,0,1-.41-.35L28,27.42a.5.5,0,0,1,.26-.63l.45-.22a.55.55,0,0,0,.37-.26.5.5,0,0,0,0-.46l-.51-1.18h.12a1.68,1.68,0,0,1,1.42.74l3.79,5.71a.5.5,0,0,1,.08.26.56.56,0,0,1-.58.52Z"/><path class="cls-1" d="M19,13.3a.52.52,0,1,0,1,0V12.06l1.79-1a.51.51,0,0,0,.21-.7.52.52,0,0,0-.7-.21l-1.82,1-1.82-1a.52.52,0,0,0-.7.21.51.51,0,0,0,.21.7l1.79,1Z"/><path class="cls-1" d="M12.54,15.82l6.71,3.62a.55.55,0,0,0,.5,0l6.71-3.62a.5.5,0,0,0,.27-.45V8.13a.5.5,0,0,0-.25-.44h0L19.74,4.06a.53.53,0,0,0-.49,0L12.54,7.68s0,0,0,0a.5.5,0,0,0-.25.44v7.24a.5.5,0,0,0,.27.45ZM13.3,9l1.31.7a.52.52,0,0,0,.7-.21.52.52,0,0,0-.22-.7l-1.22-.66,5.63-3,5.63,3-1.22.66a.52.52,0,0,0-.22.7.52.52,0,0,0,.7.21L25.7,9v6.06L20,18.12V16.4a.52.52,0,0,0-1,0v1.72L13.3,15.06Z"/><rect class="cls-2" width="39" height="39"/></g></g></svg>