<svg xmlns="http://www.w3.org/2000/svg" viewBox="0 0 39 39"><defs><style>.cls-1,.cls-3{fill:none;}.cls-1{stroke:#17c8fe;stroke-miterlimit:10;}.cls-2{fill:#17c8fe;}</style></defs><title>ic_menu_convert</title><g id="Layer_2" data-name="Layer 2"><g id="Layer_1-2" data-name="Layer 1"><path class="cls-1" d="M18.81,15.76A9.61,9.61,0,1,1,19,23.6"/><path class="cls-1" d="M18.13,26.3a9.61,9.61,0,1,1,0-13.6"/><polyline class="cls-1" points="17.2 19.07 21.63 19.07 19.93 17.37"/><polyline class="cls-1" points="22.14 20.78 16.69 20.78 18.39 22.48"/><path class="cls-2" d="M32,19.92a1.5,1.5,0,0,0-.83-1,5,5,0,0,0-.54-.21l-.06,0,.11-.06a1.5,1.5,0,0,0,.78-1.25,2.19,2.19,0,0,0-.13-.95,1.6,1.6,0,0,0-.88-.89,4.24,4.24,0,0,0-1.35-.33c-.17,0-.17,0-.17-.17v-.87h-1v1h-.76c-.06,0-.08,0-.08-.07v-.91h-1v1H24.28v1.11h.48a.53.53,0,0,1,.53.56c0,1.5,0,3,0,4.49,0,.3-.13.44-.43.44h-.57v1.26h1.77v.86h1v-.77s0-.08.05-.08h.79v.85h1v-.77c0-.08,0-.1.1-.11.36,0,.73-.07,1.1-.14a2.64,2.64,0,0,0,1.24-.56,1.89,1.89,0,0,0,.61-1A2.84,2.84,0,0,0,32,19.92Zm-4.84-3.55c.38,0,.76,0,1.13,0a1.59,1.59,0,0,1,.92.33.93.93,0,0,1,.17,1.18,1.19,1.19,0,0,1-.67.42,5.46,5.46,0,0,1-1.56.13c-.07,0-.07,0-.07-.09V16.46C27.09,16.4,27.1,16.37,27.17,16.37Zm2.7,4.77a1.11,1.11,0,0,1-.63.45,3.53,3.53,0,0,1-1.21.2c-.31,0-.61,0-.93,0v-.1c0-.69,0-1.38,0-2.08,0-.09,0-.11.11-.11.42,0,.83,0,1.24,0a2.4,2.4,0,0,1,1.1.31A1,1,0,0,1,29.87,21.14Z"/><path class="cls-2" d="M10.08,25.75,6.36,20.48l3.72,2.18v3.09Zm0-3.86-3.75-2.2,3.75-1.64v3.84Zm0-4.1L6.46,19.38l3.62-6.1Zm.25-4.51L14,19.4l-3.68-1.61Zm0,12.47V22.66l3.72-2.18-3.72,5.27Zm0-3.86V18.05l3.75,1.65Z"/><rect class="cls-3" width="39" height="39"/></g></g></svg>