<svg xmlns="http://www.w3.org/2000/svg" viewBox="0 0 39 39"><defs><style>.cls-1,.cls-2,.cls-3{fill:none;}.cls-1,.cls-2{stroke:#17c8fe;stroke-miterlimit:10;}.cls-1{stroke-linecap:round;}.cls-2{stroke-linecap:square;}</style></defs><title>ic_menu_dnero_pay</title><g id="Layer_2" data-name="Layer 2"><g id="Layer_1-2" data-name="Layer 1"><line class="cls-1" x1="23.72" y1="7.65" x2="8.22" y2="7.65"/><line class="cls-1" x1="23.72" y1="29.41" x2="8.22" y2="29.41"/><polyline class="cls-2" points="13.34 12.74 13.34 9.5 16.66 9.5"/><polyline class="cls-2" points="30.67 23.8 30.67 27.05 27.35 27.05"/><polyline class="cls-2" points="27.54 9.61 30.78 9.61 30.78 12.93"/><polyline class="cls-2" points="16.47 26.94 13.23 26.94 13.23 23.62"/><rect class="cls-2" x="16.07" y="20.19" width="3.54" height="3.54"/><rect class="cls-2" x="16.14" y="12.3" width="3.54" height="3.54"/><rect class="cls-2" x="24.84" y="12.3" width="3.54" height="3.54"/><line class="cls-2" x1="15.85" y1="18.05" x2="16.88" y2="18.05"/><polyline class="cls-2" points="19.39 18.05 21.6 18.05 21.6 14.66 23.07 14.66 23.07 12.3"/><polyline class="cls-2" points="24.6 18.05 25.88 18.05 25.88 19.38 27.79 19.38"/><polyline class="cls-2" points="23.96 20.71 23.96 22.04 21.75 22.04 21.75 23.8"/><polyline class="cls-2" points="25.88 23.36 28.09 23.36 28.09 21.67"/><path class="cls-1" d="M24.22,28.94v2.52A2.54,2.54,0,0,1,21.69,34H10.76a2.54,2.54,0,0,1-2.54-2.54V7.54A2.54,2.54,0,0,1,10.76,5H21.69a2.54,2.54,0,0,1,2.53,2.54"/><line class="cls-1" x1="15.78" y1="31.34" x2="17.43" y2="31.34"/><rect class="cls-3" width="39" height="39"/></g></g></svg>