<svg xmlns="http://www.w3.org/2000/svg" viewBox="0 0 39 39"><defs><style>.cls-1,.cls-2{fill:none;}.cls-1{stroke:#17c8fe;stroke-linecap:round;stroke-miterlimit:10;stroke-width:0.89px;}</style></defs><title>ic_menu_send</title><g id="Layer_2" data-name="Layer 2"><g id="Layer_1-2" data-name="Layer 1"><path class="cls-1" d="M23.69,8h8a5.77,5.77,0,1,1,0,11.54H30"/><polyline class="cls-1" points="26.4 5.5 23.23 8.22 26.4 10.93"/><rect class="cls-1" x="1.51" y="13.2" width="28.52" height="17.66"/><path class="cls-1" d="M24.83,28.41v.18h-18l-.13-.88A2.45,2.45,0,0,0,5.18,25.8l-1-.38V19.21l.7-.15a2.75,2.75,0,0,0,2.17-2.49l0-.66H24.82l0,.46a2.83,2.83,0,0,0,3,3h0v6.2l-.18,0A3.11,3.11,0,0,0,24.83,28.41Z"/><circle class="cls-1" cx="16.22" cy="22.48" r="2.94"/><rect class="cls-2" width="39" height="39"/></g></g></svg>