<svg xmlns="http://www.w3.org/2000/svg" viewBox="0 0 39 39"><defs><style>.cls-1,.cls-3{fill:none;}.cls-1{stroke:#17c8fe;stroke-linecap:round;stroke-miterlimit:10;}.cls-2{fill:#17c8fe;}</style></defs><title>ic_menu_cash</title><g id="Layer_2" data-name="Layer 2"><g id="Layer_1-2" data-name="Layer 1"><path class="cls-1" d="M23.13,22.79V32.9a2.6,2.6,0,0,1-2.6,2.6H10.23a2.6,2.6,0,0,1-2.61-2.6V8.74a2.6,2.6,0,0,1,2.61-2.6h3.83"/><line class="cls-1" x1="12.57" y1="9.11" x2="7.62" y2="9.11"/><line class="cls-1" x1="7.62" y1="30.18" x2="23.13" y2="30.18"/><line class="cls-1" x1="14.22" y1="32.53" x2="15.87" y2="32.53"/><circle class="cls-1" cx="22.96" cy="11.91" r="8.41"/><path class="cls-2" d="M22.92,6.19a.41.41,0,0,1,.41.39V7.65a4.45,4.45,0,0,1,2.13.77.53.53,0,0,1,.26.41.47.47,0,0,1-.47.46A.45.45,0,0,1,25,9.21a3.74,3.74,0,0,0-1.66-.71l0,3.09c1.91.4,2.72,1.13,2.74,2.39s-1.07,2.28-2.63,2.4l0,.89a.43.43,0,0,1-.4.41.41.41,0,0,1-.4-.4l0-.91a5,5,0,0,1-2.73-1.07.48.48,0,0,1-.22-.4.47.47,0,0,1,.46-.46.5.5,0,0,1,.29.1,4.05,4.05,0,0,0,2.23,1l-.05-3.14C20.78,12,20,11.31,19.94,10a2.47,2.47,0,0,1,2.59-2.35v-1A.4.4,0,0,1,22.92,6.19Zm-.29,5.24-.05-2.95c-1.06.06-1.69.67-1.68,1.44S21.26,11.09,22.63,11.43Zm.74,1.11,0,3c1.08-.08,1.73-.68,1.72-1.5S24.74,12.87,23.37,12.54Z"/><rect class="cls-3" width="39" height="39"/></g></g></svg>