<svg xmlns="http://www.w3.org/2000/svg" width="133" height="133.24" viewBox="0 0 133 133.24"><g transform="translate(-234 -998.182)"><path d="M358.133,1055.935a8.866,8.866,0,0,0-8.551,6.65h-4.749v4.433h4.749a8.851,8.851,0,1,0,8.551-11.083Zm0,13.3a4.433,4.433,0,1,1,4.434-4.433A4.433,4.433,0,0,1,358.133,1069.235Z" fill="#27c7ff"/><path d="M284.983,1016.035a8.754,8.754,0,0,0,3.769-.876l4.239,5.088a8.786,8.786,0,0,0,5.292,13.207v4.748h4.434v-4.748a8.787,8.787,0,0,0,5.293-13.207l4.239-5.088a8.753,8.753,0,0,0,3.768.876,8.926,8.926,0,1,0-7.184-3.71l-4.05,4.86a8.55,8.55,0,0,0-8.565,0l-4.05-4.86a8.847,8.847,0,1,0-7.185,3.71Zm31.034-13.3a4.434,4.434,0,1,1-4.434,4.433A4.433,4.433,0,0,1,316.017,1002.735ZM300.5,1020.468a4.433,4.433,0,1,1-4.433,4.434A4.433,4.433,0,0,1,300.5,1020.468Zm-15.517-17.733a4.434,4.434,0,1,1-4.433,4.433A4.433,4.433,0,0,1,284.983,1002.735Z" fill="#27c7ff"/><path d="M318.883,1043.284l3.134,3.135,9.474-9.474a8.757,8.757,0,0,0,4.476,1.257,8.867,8.867,0,1,0-8.867-8.867,8.757,8.757,0,0,0,1.258,4.475Zm17.084-18.382a4.433,4.433,0,1,1-4.434,4.433A4.433,4.433,0,0,1,335.967,1024.9Z" fill="#27c7ff"/><path d="M343.266,1018.9l2.6-2.6,3.134,3.135-2.6,2.6Z" fill="#27c7ff"/><path d="M352.133,1016.3l1.525-1.525a8.753,8.753,0,0,0,4.475,1.257,8.866,8.866,0,1,0-8.866-8.867,8.752,8.752,0,0,0,1.257,4.476L349,1013.169Zm6-13.568a4.434,4.434,0,1,1-4.433,4.433A4.433,4.433,0,0,1,358.133,1002.735Z" fill="#27c7ff"/><path d="M265.033,1038.2a8.752,8.752,0,0,0,4.476-1.257l9.474,9.474,3.134-3.135-9.474-9.474a8.746,8.746,0,0,0,1.257-4.475,8.867,8.867,0,1,0-8.867,8.867Zm0-13.3a4.433,4.433,0,1,1-4.433,4.433A4.433,4.433,0,0,1,265.033,1024.9Z" fill="#27c7ff"/><path d="M242.867,1016.035a8.748,8.748,0,0,0,4.475-1.257l1.525,1.525,3.135-3.134-1.525-1.525a8.741,8.741,0,0,0,1.256-4.476,8.867,8.867,0,1,0-8.866,8.867Zm0-13.3a4.434,4.434,0,1,1-4.434,4.433A4.433,4.433,0,0,1,242.867,1002.735Z" fill="#27c7ff"/><path d="M252,1019.439l3.134-3.135,2.6,2.6-3.136,3.135Z" fill="#27c7ff"/><path d="M335.967,1091.4a8.757,8.757,0,0,0-4.476,1.257l-9.474-9.475-3.134,3.135,9.475,9.474a8.765,8.765,0,0,0-1.258,4.475,8.867,8.867,0,1,0,8.867-8.866Zm0,13.3a4.434,4.434,0,1,1,4.433-4.434A4.433,4.433,0,0,1,335.967,1104.7Z" fill="#27c7ff"/><path d="M358.133,1113.568a8.764,8.764,0,0,0-4.475,1.258l-1.525-1.525L349,1116.434l1.525,1.525a8.758,8.758,0,0,0-1.257,4.476,8.867,8.867,0,1,0,8.866-8.867Zm0,13.3a4.433,4.433,0,1,1,4.434-4.433A4.433,4.433,0,0,1,358.133,1126.868Z" fill="#27c7ff"/><path d="M316.017,1113.568a8.772,8.772,0,0,0-3.768.888l-4.239-5.1a8.788,8.788,0,0,0-5.293-13.207V1091.4h-4.434v4.748a8.787,8.787,0,0,0-5.292,13.207l-4.239,5.1a8.776,8.776,0,0,0-3.769-.888,8.928,8.928,0,1,0,7.185,3.712l4.05-4.862a8.545,8.545,0,0,0,8.565,0l4.05,4.862a8.846,8.846,0,1,0,7.184-3.712Zm-31.034,13.3a4.433,4.433,0,1,1,4.434-4.433A4.433,4.433,0,0,1,284.983,1126.868Zm15.517-17.733a4.434,4.434,0,1,1,4.433-4.433A4.433,4.433,0,0,1,300.5,1109.135Zm15.517,17.733a4.433,4.433,0,1,1,4.433-4.433A4.433,4.433,0,0,1,316.017,1126.868Z" fill="#27c7ff"/><path d="M343.266,1110.7l3.135-3.134,2.6,2.6-3.134,3.136Z" fill="#27c7ff"/><path d="M248.867,1113.3l-1.525,1.525a8.758,8.758,0,0,0-4.475-1.258,8.867,8.867,0,1,0,8.866,8.867,8.747,8.747,0,0,0-1.256-4.476l1.525-1.525Zm-6,13.567a4.433,4.433,0,1,1,4.433-4.433A4.433,4.433,0,0,1,242.867,1126.868Z" fill="#27c7ff"/><path d="M282.117,1086.319l-3.134-3.135-9.474,9.475a8.752,8.752,0,0,0-4.476-1.257,8.867,8.867,0,1,0,8.867,8.866,8.754,8.754,0,0,0-1.257-4.475ZM265.033,1104.7a4.434,4.434,0,1,1,4.434-4.434A4.433,4.433,0,0,1,265.033,1104.7Z" fill="#27c7ff"/><path d="M252,1110.164l2.6-2.6,3.136,3.134-2.6,2.6Z" fill="#27c7ff"/><path d="M327.1,1062.585h4.433v4.433H327.1Z" fill="#27c7ff"/><path d="M335.967,1062.585H340.4v4.433h-4.433Z" fill="#27c7ff"/><path d="M242.867,1073.668a8.866,8.866,0,0,0,8.552-6.65h4.748v-4.433h-4.748a8.851,8.851,0,1,0-8.552,11.083Zm0-13.3a4.433,4.433,0,1,1-4.434,4.434A4.433,4.433,0,0,1,242.867,1060.368Z" fill="#27c7ff"/><path d="M269.467,1062.585H273.9v4.433h-4.433Z" fill="#27c7ff"/><path d="M260.6,1062.585h4.433v4.433H260.6Z" fill="#27c7ff"/><path d="M300.5,1042.635a22.167,22.167,0,1,0,22.167,22.167A22.168,22.168,0,0,0,300.5,1042.635Zm-11.083,35.988v-.153a27.639,27.639,0,0,1,6.524-10.407l.083-.085a8.593,8.593,0,0,0,8.952,0l.084.085a27.624,27.624,0,0,1,6.523,10.407v.153A17.656,17.656,0,0,1,289.417,1078.623ZM300.5,1064.8a4.433,4.433,0,1,1,4.433-4.434A4.433,4.433,0,0,1,300.5,1064.8Zm14.457,10.234a31.968,31.968,0,0,0-6.763-10.108l-.084-.084a8.751,8.751,0,0,0,1.257-4.476,8.867,8.867,0,0,0-17.734,0,8.762,8.762,0,0,0,1.258,4.476l-.084.084a31.988,31.988,0,0,0-6.764,10.108,17.733,17.733,0,1,1,28.914,0Z" fill="#fff"/></g></svg>