<svg xmlns="http://www.w3.org/2000/svg" viewBox="0 0 19.47 19.47"><defs><style>.cls-1{fill:#4d4d4d;}.cls-2{fill:none;}</style></defs><title>ic_ark_04</title><g id="Layer_2" data-name="Layer 2"><g id="dnero_ark"><path class="cls-1" d="M16.23,9.55a.29.29,0,0,0-.38.13.28.28,0,0,0,.13.37c1,.49,1.55,1.07,1.55,1.63,0,.77-1,1.58-2.78,2.12V8.9h1a1.4,1.4,0,0,0,1.38-1.19L17.35,6A1.4,1.4,0,0,0,16,4.45H14.75V2.5a1.12,1.12,0,0,0-1.12-1.11H5.84A1.11,1.11,0,0,0,4.73,2.5v2H3.5A1.38,1.38,0,0,0,2.13,6l.23,1.67A1.4,1.4,0,0,0,3.74,8.9h1v4.9C3,13.26,1.94,12.45,1.94,11.68a1.94,1.94,0,0,1,1.12-1.47v.92a.28.28,0,1,0,.55,0V9.74a.27.27,0,0,0-.27-.28H1.67a.28.28,0,1,0,0,.55h.69a2.19,2.19,0,0,0-1,1.67c0,1.12,1.3,2.09,3.34,2.69V17a1.12,1.12,0,0,0,1.11,1.12h7.79A1.12,1.12,0,0,0,14.75,17v-2.6c2-.6,3.34-1.57,3.34-2.69,0-.8-.65-1.54-1.86-2.13ZM11.88,1.94l-.36.39a.57.57,0,0,1-.41.17H8.36A.58.58,0,0,1,8,2.33L7.6,1.94Zm-6.6.56a.56.56,0,0,1,.56-.56h1l.72.77a1.12,1.12,0,0,0,.81.35h2.75a1.14,1.14,0,0,0,.82-.35l.71-.77h1a.56.56,0,0,1,.56.56v2H5.28Zm5.05,3.37.11.38A2,2,0,0,0,9,6.25l.11-.38A1.12,1.12,0,0,0,9,5h1.42a1.08,1.08,0,0,0-.12.86ZM3.74,8.35a.87.87,0,0,1-.83-.72L2.68,6a.82.82,0,0,1,.19-.67A.84.84,0,0,1,3.5,5H8.07a.54.54,0,0,1,.44.22.57.57,0,0,1,.1.49L8,7.74a.86.86,0,0,1-.81.61ZM14.19,17a.56.56,0,0,1-.56.56H5.84A.56.56,0,0,1,5.28,17v-.43a1.09,1.09,0,0,0,.56.15h7.79a1.09,1.09,0,0,0,.56-.15Zm0-1.39a.56.56,0,0,1-.56.56H5.84a.56.56,0,0,1-.56-.56V14.52a18.11,18.11,0,0,0,4.46.5,18,18,0,0,0,4.45-.5Zm0-1.62a18.53,18.53,0,0,1-4.45.51A18.61,18.61,0,0,1,5.28,14V8.9H7.22a1.39,1.39,0,0,0,1.34-1l.24-.82a1.32,1.32,0,0,1,.94-.39,1.33,1.33,0,0,1,.94.39l.23.82a1.39,1.39,0,0,0,1.34,1h1.94ZM12.25,8.35a.85.85,0,0,1-.8-.61l-.58-2A.54.54,0,0,1,11,5.23.54.54,0,0,1,11.4,5H16a.84.84,0,0,1,.63.28.87.87,0,0,1,.2.67l-.24,1.67a.85.85,0,0,1-.83.72Z"/><rect class="cls-2" width="19.47" height="19.47"/></g></g></svg>