<svg xmlns="http://www.w3.org/2000/svg" xmlns:xlink="http://www.w3.org/1999/xlink" viewBox="0 0 19.47 19.47"><defs><style>.cls-1{fill:none;}.cls-2{clip-path:url(#clip-path);}.cls-3{fill:#4d4d4d;}</style><clipPath id="clip-path"><rect class="cls-1" x="2.74" y="2.74" width="14" height="14"/></clipPath></defs><title>ic_ark_01</title><g id="Layer_2" data-name="Layer 2"><g id="dnero_ark"><g class="cls-2"><path class="cls-3" d="M14.91,12.15a1.22,1.22,0,0,0-1-.55H13.1l2.67-4.07a.24.24,0,0,0,0-.23.24.24,0,0,0-.41,0l-3.89,6H8l-3.9-6a.22.22,0,0,0-.21-.11.23.23,0,0,0-.2.13.24.24,0,0,0,0,.23L6.37,11.6H5.59a1.23,1.23,0,0,0-1,.55L2.85,14.73a.7.7,0,0,0-.11.37V16a.7.7,0,0,0,.7.7H16a.71.71,0,0,0,.7-.7V15.1a.63.63,0,0,0-.12-.37Zm-8.52-.08h.29l1,1.53a.26.26,0,0,0,.2.1H11.6a.25.25,0,0,0,.2-.1l1-1.53h.52l.22.51-.07,0a.71.71,0,0,0-.35.85l.25.75a.68.68,0,0,0,.55.47l.58.1.25.56H5ZM3.24,15,5,12.4a.76.76,0,0,1,.64-.33h.29L4.45,15.34h-1a.26.26,0,0,1-.26-.24.28.28,0,0,1,0-.12Zm13,1.06a.23.23,0,0,1-.23.23H3.44A.23.23,0,0,1,3.2,16v-.29a.63.63,0,0,0,.26.05H16a.58.58,0,0,0,.26-.05Zm-.26-.7h-.75l-.38-.87a.25.25,0,0,0-.22-.14L14,14.22a.22.22,0,0,1-.18-.16l-.25-.75a.22.22,0,0,1,.12-.28l.2-.1a.26.26,0,0,0,.17-.12.22.22,0,0,0,0-.21l-.23-.53h.05a.79.79,0,0,1,.65.33L16.23,15a.15.15,0,0,1,0,.11.25.25,0,0,1-.26.24Z"/><path class="cls-3" d="M9.5,6.94a.23.23,0,0,0,.24.23A.23.23,0,0,0,10,6.94V6.38l.81-.44a.23.23,0,1,0-.22-.41L9.74,6l-.83-.44a.23.23,0,0,0-.31.09.24.24,0,0,0,.09.32l.81.44Z"/><path class="cls-3" d="M6.59,8.08l3,1.63a.22.22,0,0,0,.22,0l3-1.63A.24.24,0,0,0,13,7.87V4.6a.24.24,0,0,0-.11-.2h0l-3-1.63a.22.22,0,0,0-.22,0l-3,1.63h0a.24.24,0,0,0-.11.2V7.87a.26.26,0,0,0,.12.21ZM6.94,5l.59.32a.23.23,0,0,0,.31-.09.24.24,0,0,0-.09-.32L7.2,4.6,9.74,3.24,12.28,4.6l-.55.3a.23.23,0,0,0-.1.32.24.24,0,0,0,.32.09L12.54,5V7.73L10,9.11V8.34a.23.23,0,0,0-.23-.24.24.24,0,0,0-.24.24v.77L6.94,7.73Z"/></g><rect class="cls-1" width="19.47" height="19.47"/></g></g></svg>