<svg xmlns="http://www.w3.org/2000/svg" xmlns:xlink="http://www.w3.org/1999/xlink" viewBox="0 0 19.47 19.47"><defs><style>.cls-1{fill:none;}.cls-2{clip-path:url(#clip-path);}.cls-3{fill:#4d4d4d;}</style><clipPath id="clip-path"><rect class="cls-1" x="2.24" y="2.61" width="15" height="15"/></clipPath></defs><title>ic_ark_02</title><g id="Layer_2" data-name="Layer 2"><g id="dnero_ark"><g class="cls-2"><path class="cls-3" d="M16.24,8.61H6.54L8.17,6.78a.25.25,0,0,0,.05-.25A.23.23,0,0,0,8,6.37a.24.24,0,0,0-.24.08L5.87,8.61H4.6L2.67,6.45a.24.24,0,0,0-.35,0,.26.26,0,0,0,0,.36L3.93,8.61H3.24a1,1,0,0,0-1,1v7a1,1,0,0,0,1,1h13a1,1,0,0,0,1-1v-7a1,1,0,0,0-1-1ZM2.74,11.19l.34.32a.5.5,0,0,1,.16.36v2.48a.48.48,0,0,1-.16.36L2.74,15Zm12.75,5.42a.5.5,0,0,1-.5.5H3.24a.5.5,0,0,1-.5-.5v-.89l.68-.64a1,1,0,0,0,.32-.73V11.87a1,1,0,0,0-.32-.73l-.68-.64V9.61a.5.5,0,0,1,.5-.5H15a.51.51,0,0,1,.5.5Zm1.25,0a.5.5,0,0,1-.5.5h-.39a1,1,0,0,0,.14-.5v-7a1,1,0,0,0-.14-.5h.39a.51.51,0,0,1,.5.5Z"/></g><path class="cls-3" d="M9.49,14.11V11.86a.25.25,0,0,0-.17-.23l-2-.75a.25.25,0,0,0-.17,0l-2,.75a.24.24,0,0,0-.16.23v2.25a.25.25,0,0,0,.16.24l2,.75a.25.25,0,0,0,.17,0l2-.75a.26.26,0,0,0,.17-.24ZM7,14.5l-1.5-.56V12.22l1.5.56Zm.25-2.16L6,11.86l1.29-.48,1.28.48ZM9,13.94l-1.5.56V12.78L9,12.22Z"/><path class="cls-3" d="M4.74,11.36A.25.25,0,0,0,5,11.11v-.5h.5a.25.25,0,0,0,0-.5H4.74a.25.25,0,0,0-.25.25v.75a.25.25,0,0,0,.25.25Z"/><path class="cls-3" d="M9.74,10.11H9a.25.25,0,0,0,0,.5h.5v.5a.25.25,0,0,0,.25.25.25.25,0,0,0,.25-.25v-.75a.25.25,0,0,0-.25-.25Z"/><path class="cls-3" d="M5.49,15.61H5v-.5a.25.25,0,0,0-.25-.25.25.25,0,0,0-.25.25v.75a.25.25,0,0,0,.25.25h.75a.25.25,0,1,0,0-.5Z"/><path class="cls-3" d="M9.74,14.86a.25.25,0,0,0-.25.25v.5H9a.25.25,0,0,0,0,.5h.75a.25.25,0,0,0,.25-.25v-.75a.25.25,0,0,0-.25-.25Z"/><path class="cls-3" d="M14,14.11H12.74a.25.25,0,0,0,0,.5H14a.51.51,0,0,1,.5.5.5.5,0,0,1-.5.5H11.74a.5.5,0,0,1-.5-.5.5.5,0,0,1,.5-.5.25.25,0,1,0,0-.5,1,1,0,0,0,0,2H14a1,1,0,1,0,0-2Z"/><path class="cls-3" d="M11,10.86h.5a.25.25,0,1,0,0-.5H11a.25.25,0,0,0,0,.5Z"/><path class="cls-3" d="M12.49,10.86h2a.25.25,0,1,0,0-.5h-2a.25.25,0,0,0,0,.5Z"/><path class="cls-3" d="M14.49,12.36H14a.25.25,0,0,0,0,.5h.5a.25.25,0,1,0,0-.5Z"/><path class="cls-3" d="M11,12.86h2a.25.25,0,1,0,0-.5H11a.25.25,0,0,0,0,.5Z"/><path class="cls-3" d="M4.74,6.86a2.5,2.5,0,1,0-2.5-2.5A2.5,2.5,0,0,0,4.74,6.86Zm0-4.69A2.19,2.19,0,1,1,2.55,4.36,2.19,2.19,0,0,1,4.74,2.17Z"/><path class="cls-3" d="M4,5.61h.15v.16a.16.16,0,0,0,.16.15.15.15,0,0,0,.15-.15V5.61h.32v.16a.15.15,0,0,0,.15.15.16.16,0,0,0,.16-.15V5.61h.08A.7.7,0,0,0,5.48,4.3a.7.7,0,0,0-.43-1.18V3a.16.16,0,0,0-.16-.16A.16.16,0,0,0,4.74,3v.15H4.42V3a.16.16,0,0,0-.15-.16A.16.16,0,0,0,4.11,3v.15H4a.16.16,0,0,0-.16.16V5.46A.16.16,0,0,0,4,5.61ZM5.13,5.3h-1V4.52h1a.39.39,0,0,1,.39.39A.4.4,0,0,1,5.13,5.3Zm-1-1.88H5a.4.4,0,0,1,0,.79H4.11Z"/><rect class="cls-1" width="19.47" height="19.47"/></g></g></svg>