<svg xmlns="http://www.w3.org/2000/svg" xmlns:xlink="http://www.w3.org/1999/xlink" width="216.734" height="33.383" viewBox="0 0 216.734 33.383"><defs><style>.a{fill:#2f73e8;}.b{fill:#023bbd;}.c{fill:#499fe9;}.d{fill:url(#a);}.e{fill:url(#b);}.f{fill:url(#c);}</style><linearGradient id="a" x1="0.562" y1="0.125" x2="0.438" y2="0.875" gradientUnits="objectBoundingBox"><stop offset="0.005" stop-color="#2f73e8"/><stop offset="0.472" stop-color="#2965e7"/><stop offset="0.995" stop-color="#265ae7"/></linearGradient><linearGradient id="b" x1="0.512" y1="0.411" x2="0.445" y2="0.9" gradientUnits="objectBoundingBox"><stop offset="0.005" stop-color="#2f73e8"/><stop offset="0.55" stop-color="#3e8de8"/><stop offset="1" stop-color="#499fe9"/></linearGradient><linearGradient id="c" y1="0.5" x2="1" y2="0.5" gradientUnits="objectBoundingBox"><stop offset="0.005" stop-color="#2f73e8"/><stop offset="0.066" stop-color="#3176e8"/><stop offset="0.662" stop-color="#4293e8"/><stop offset="1" stop-color="#499fe9"/></linearGradient></defs><g transform="translate(-289.015 -16.185)"><path class="a" d="M323.432,26.305a1.781,1.781,0,0,1,1.795-1.8H329.8c5.129,0,8.672,3.52,8.672,8.112v.047c0,4.592-3.543,8.159-8.672,8.159h-4.569a1.782,1.782,0,0,1-1.795-1.795ZM329.8,37.588a4.651,4.651,0,0,0,4.919-4.873v-.046A4.687,4.687,0,0,0,329.8,27.75h-2.774v9.838Z"/><path class="a" d="M329.8,41.373h-4.569a2.315,2.315,0,0,1-2.34-2.34V26.305a2.315,2.315,0,0,1,2.34-2.34H329.8c5.34,0,9.217,3.64,9.217,8.657v.047c0,5.043-3.877,8.7-9.217,8.7m-4.569-16.319a1.237,1.237,0,0,0-1.25,1.251V39.033a1.237,1.237,0,0,0,1.25,1.25H329.8c4.709,0,8.127-3.2,8.127-7.614v-.047c0-4.385-3.418-7.568-8.127-7.568ZM329.8,38.132h-3.319V27.2H329.8a5.228,5.228,0,0,1,5.464,5.464v.047a5.2,5.2,0,0,1-5.464,5.416m-2.229-1.089H329.8a4.119,4.119,0,0,0,4.374-4.327v-.047A4.141,4.141,0,0,0,329.8,28.3h-2.229Z"/><path class="a" d="M340.5,26.211a1.782,1.782,0,0,1,1.795-1.8h.373a2.222,2.222,0,0,1,1.865,1.05l6.923,9.091V26.141a1.772,1.772,0,0,1,3.544,0V39.126a1.781,1.781,0,0,1-1.8,1.8h-.117a2.226,2.226,0,0,1-1.865-1.049l-7.179-9.418V39.2a1.772,1.772,0,1,1-3.544,0Z"/><path class="a" d="M342.269,41.512a2.319,2.319,0,0,1-2.317-2.316V26.211a2.315,2.315,0,0,1,2.34-2.34h.373a2.771,2.771,0,0,1,2.295,1.26l5.948,7.812v-6.8a2.317,2.317,0,0,1,4.634,0V39.126a2.315,2.315,0,0,1-2.34,2.34h-.116a2.773,2.773,0,0,1-2.3-1.259l-6.205-8.14V39.2a2.319,2.319,0,0,1-2.316,2.316m.023-16.551a1.237,1.237,0,0,0-1.25,1.25V39.2a1.227,1.227,0,1,0,2.453,0V28.841l8.158,10.7a1.672,1.672,0,0,0,1.433.835h.116a1.237,1.237,0,0,0,1.25-1.251V26.141a1.227,1.227,0,0,0-2.454,0v10.03L344.1,25.8a1.669,1.669,0,0,0-1.432-.835Z"/><path class="a" d="M357.749,39.033V26.305a1.781,1.781,0,0,1,1.8-1.8h9.045a1.613,1.613,0,0,1,1.608,1.609,1.592,1.592,0,0,1-1.608,1.585h-7.274v3.311h6.224a1.612,1.612,0,0,1,1.609,1.608,1.592,1.592,0,0,1-1.609,1.585h-6.224v3.427h7.39a1.612,1.612,0,0,1,1.609,1.609,1.592,1.592,0,0,1-1.609,1.585h-9.161a1.781,1.781,0,0,1-1.8-1.795"/><path class="a" d="M368.7,41.373h-9.161a2.315,2.315,0,0,1-2.34-2.34V26.305a2.315,2.315,0,0,1,2.34-2.34h9.045a2.142,2.142,0,1,1,0,4.283H361.86v2.221h5.68a2.142,2.142,0,1,1,0,4.283h-5.68v2.337H368.7a2.142,2.142,0,1,1,0,4.284m-9.161-16.319a1.237,1.237,0,0,0-1.251,1.251V39.033a1.237,1.237,0,0,0,1.251,1.25H368.7a1.053,1.053,0,0,0,1.064-1.04,1.065,1.065,0,0,0-1.064-1.064h-7.934V33.663h6.769a1.042,1.042,0,0,0,1.064-1.041,1.066,1.066,0,0,0-1.064-1.064h-6.769v-4.4h7.818a1.054,1.054,0,0,0,1.064-1.041,1.065,1.065,0,0,0-1.064-1.064Z"/><path class="a" d="M372.2,26.305A1.78,1.78,0,0,1,374,24.51h5.664a6.5,6.5,0,0,1,4.756,1.655,5.122,5.122,0,0,1,1.4,3.73v.046a4.978,4.978,0,0,1-3.263,4.965l2.494,3.031a2.092,2.092,0,0,1,.583,1.376,1.67,1.67,0,0,1-1.7,1.655,2.144,2.144,0,0,1-1.771-.933l-3.5-4.429h-2.867v3.567a1.795,1.795,0,1,1-3.59,0Zm7.226,6.131c1.749,0,2.751-.933,2.751-2.308v-.047c0-1.539-1.072-2.331-2.82-2.331h-3.567v4.686Z"/><path class="a" d="M383.929,41.512a2.678,2.678,0,0,1-2.2-1.141L378.4,36.15h-2.058v3.023a2.34,2.34,0,0,1-4.68,0V26.305a2.315,2.315,0,0,1,2.34-2.34h5.665a7.076,7.076,0,0,1,5.14,1.814,5.659,5.659,0,0,1,1.559,4.115v.047a5.482,5.482,0,0,1-2.944,5.159l2.05,2.491a2.641,2.641,0,0,1,.707,1.721,2.2,2.2,0,0,1-2.246,2.2m-8.681-6.451h3.676l3.661,4.637a1.6,1.6,0,0,0,1.344.725,1.126,1.126,0,0,0,1.157-1.111,1.573,1.573,0,0,0-.466-1.037l-2.956-3.591.682-.281a4.447,4.447,0,0,0,2.926-4.462v-.047a4.6,4.6,0,0,0-1.239-3.345,6.03,6.03,0,0,0-4.37-1.495H374a1.238,1.238,0,0,0-1.251,1.251V39.173a1.25,1.25,0,0,0,2.5,0Zm4.181-2.081h-4.181V27.2h4.112c2.107,0,3.365,1.075,3.365,2.877v.046c0,1.732-1.293,2.852-3.3,2.852m-3.091-1.089h3.091c1.4,0,2.207-.643,2.207-1.763v-.046c0-1.186-.766-1.787-2.276-1.787h-3.022Z"/><path class="a" d="M387.17,32.715v-.046a8.676,8.676,0,0,1,17.344-.047v.047a8.676,8.676,0,0,1-17.344.046m13.591,0v-.046a4.958,4.958,0,0,0-4.943-5.129,4.881,4.881,0,0,0-4.895,5.082v.047a4.957,4.957,0,0,0,4.942,5.128,4.88,4.88,0,0,0,4.9-5.082"/><path class="a" d="M395.818,41.652a8.868,8.868,0,0,1-9.193-8.936v-.047a9.017,9.017,0,0,1,9.24-8.983,8.868,8.868,0,0,1,9.193,8.936v.047a9.017,9.017,0,0,1-9.24,8.983m.047-16.877a7.939,7.939,0,0,0-8.15,7.894v.047a7.8,7.8,0,0,0,8.1,7.847,7.94,7.94,0,0,0,8.151-7.894v-.047a7.8,7.8,0,0,0-8.1-7.847m0,13.567a5.523,5.523,0,0,1-5.487-5.673v-.047A5.414,5.414,0,0,1,395.818,27a5.524,5.524,0,0,1,5.488,5.673v.047a5.414,5.414,0,0,1-5.441,5.626m-.047-10.257a4.349,4.349,0,0,0-4.351,4.537v.047a4.4,4.4,0,0,0,4.4,4.584,4.349,4.349,0,0,0,4.351-4.537v-.047a4.395,4.395,0,0,0-4.4-4.584"/><path class="b" d="M416.7,28.653a.286.286,0,1,1,.572,0V35.87a.286.286,0,1,1-.572,0Z"/><path class="b" d="M419.817,34.67V31h-.6a.264.264,0,0,1-.254-.253.255.255,0,0,1,.254-.242h.6V28.939a.263.263,0,0,1,.264-.275.272.272,0,0,1,.275.275V30.5h1.76a.264.264,0,0,1,.253.253.254.254,0,0,1-.253.242h-1.76v3.62a.984.984,0,0,0,1.122,1.089,2.352,2.352,0,0,0,.638-.11.252.252,0,0,1,.242.242.244.244,0,0,1-.176.231,2.316,2.316,0,0,1-.792.143A1.435,1.435,0,0,1,419.817,34.67Z"/><path class="b" d="M424,28.675c.033-.2.132-.286.308-.286h.209a.165.165,0,0,1,.176.187,1.622,1.622,0,0,1-.055.264l-.627,2.211c-.044.143-.089.2-.187.2s-.176-.044-.154-.209Z"/><path class="b" d="M426.087,35.5a.291.291,0,0,1-.1-.209.269.269,0,0,1,.264-.265.3.3,0,0,1,.176.056,3.147,3.147,0,0,0,1.87.638c.759,0,1.353-.418,1.353-1.068v-.022c0-.66-.7-.9-1.485-1.122-.913-.264-1.925-.539-1.925-1.54v-.022a1.65,1.65,0,0,1,1.848-1.551,3.823,3.823,0,0,1,1.815.506.291.291,0,0,1,.143.242.268.268,0,0,1-.264.264.287.287,0,0,1-.154-.044,3.1,3.1,0,0,0-1.562-.462c-.77,0-1.276.418-1.276.979V31.9c0,.627.759.858,1.562,1.089.9.253,1.849.583,1.849,1.574v.022a1.741,1.741,0,0,1-1.937,1.639A3.856,3.856,0,0,1,426.087,35.5Z"/><path class="b" d="M435.019,35.144a.284.284,0,0,1-.11-.22.291.291,0,0,1,.285-.286.311.311,0,0,1,.187.066,3.591,3.591,0,0,0,2.6,1c1.155,0,1.947-.649,1.947-1.53v-.022c0-.814-.429-1.287-2.178-1.639-1.849-.374-2.6-1-2.6-2.167v-.022a2.229,2.229,0,0,1,2.476-2.024,3.774,3.774,0,0,1,2.453.792.3.3,0,0,1,.121.231.291.291,0,0,1-.286.286.3.3,0,0,1-.187-.066,3.3,3.3,0,0,0-2.123-.726c-1.133,0-1.881.649-1.881,1.452v.022c0,.814.418,1.309,2.244,1.683,1.782.363,2.53,1,2.53,2.124v.022c0,1.243-1.067,2.1-2.552,2.1A4.355,4.355,0,0,1,435.019,35.144Z"/><path class="b" d="M442.256,30.732a.27.27,0,1,1,.539,0v.77a2.069,2.069,0,0,1,1.871-1.133,2.013,2.013,0,0,1,1.892,1.21,2.229,2.229,0,0,1,2.025-1.21,2.11,2.11,0,0,1,2.156,2.343v3.169a.257.257,0,0,1-.264.275.266.266,0,0,1-.275-.275v-3.1c0-1.21-.627-1.914-1.661-1.914a1.808,1.808,0,0,0-1.772,1.98v3.037a.257.257,0,0,1-.264.275.266.266,0,0,1-.275-.275V32.745c0-1.166-.638-1.881-1.639-1.881a1.893,1.893,0,0,0-1.794,2.013v3a.256.256,0,0,1-.263.275.266.266,0,0,1-.276-.275Z"/><path class="b" d="M452.255,34.483v-.022c0-1.166,1-1.826,2.454-1.826a6.75,6.75,0,0,1,1.859.242v-.242a1.614,1.614,0,0,0-1.848-1.716,3.624,3.624,0,0,0-1.6.374.287.287,0,0,1-.122.033.264.264,0,0,1-.253-.253.276.276,0,0,1,.154-.242,4.355,4.355,0,0,1,1.849-.418,2.424,2.424,0,0,1,1.771.616,2.13,2.13,0,0,1,.572,1.584v3.268a.264.264,0,1,1-.528,0v-.7a2.551,2.551,0,0,1-2.145,1.067A1.954,1.954,0,0,1,452.255,34.483Zm4.324-.472v-.638a7.393,7.393,0,0,0-1.9-.253c-1.188,0-1.848.527-1.848,1.309v.022c0,.814.77,1.287,1.628,1.287A1.926,1.926,0,0,0,456.579,34.011Z"/><path class="b" d="M459.031,30.732a.27.27,0,1,1,.539,0V32.1a2.673,2.673,0,0,1,2.256-1.683.287.287,0,0,1,.286.3.293.293,0,0,1-.286.3,2.524,2.524,0,0,0-2.256,2.806v2.068a.263.263,0,0,1-.263.275.266.266,0,0,1-.276-.275Z"/><path class="b" d="M463.729,34.67V31h-.605a.264.264,0,0,1-.254-.253.254.254,0,0,1,.254-.242h.605V28.939a.262.262,0,0,1,.263-.275.273.273,0,0,1,.276.275V30.5h1.76a.264.264,0,0,1,.253.253.254.254,0,0,1-.253.242h-1.76v3.62a.984.984,0,0,0,1.122,1.089,2.353,2.353,0,0,0,.638-.11.252.252,0,0,1,.242.242.244.244,0,0,1-.176.231,2.316,2.316,0,0,1-.792.143A1.435,1.435,0,0,1,463.729,34.67Z"/><path class="b" d="M471.252,28.664a.291.291,0,0,1,.286-.286h.055a.359.359,0,0,1,.286.164l3,4.423,3-4.423a.344.344,0,0,1,.286-.164h.055a.291.291,0,0,1,.286.286V35.87a.286.286,0,1,1-.572,0V29.423l-2.827,4.115a.277.277,0,0,1-.485,0L471.8,29.423v6.458a.275.275,0,1,1-.55,0Z"/><path class="b" d="M480.294,33.329v-.022a2.9,2.9,0,0,1,2.894-2.938,2.868,2.868,0,0,1,2.871,2.915v.023a2.9,2.9,0,0,1-2.894,2.937A2.868,2.868,0,0,1,480.294,33.329Zm5.182,0v-.022a2.353,2.353,0,0,0-2.311-2.432,2.315,2.315,0,0,0-2.288,2.409v.023a2.352,2.352,0,0,0,2.311,2.431A2.315,2.315,0,0,0,485.476,33.329Z"/><path class="b" d="M487.719,30.732a.27.27,0,1,1,.539,0v.814a2.2,2.2,0,0,1,2.024-1.177,2.137,2.137,0,0,1,2.245,2.31v3.2a.257.257,0,0,1-.264.275.265.265,0,0,1-.275-.275v-3.1a1.714,1.714,0,0,0-1.783-1.914,1.923,1.923,0,0,0-1.947,2v3.015a.257.257,0,0,1-.264.275.266.266,0,0,1-.275-.275Z"/><path class="b" d="M496.828,36.244a2.788,2.788,0,0,1-2.751-2.927v-.022a2.765,2.765,0,0,1,2.662-2.926,2.658,2.658,0,0,1,2.575,2.9.274.274,0,0,1-.264.253h-4.4a2.226,2.226,0,0,0,2.2,2.212,2.484,2.484,0,0,0,1.815-.77.238.238,0,0,1,.176-.077.258.258,0,0,1,.264.253.264.264,0,0,1-.088.187A2.853,2.853,0,0,1,496.828,36.244Zm1.9-3.2a2.08,2.08,0,0,0-2.014-2.178,2.186,2.186,0,0,0-2.068,2.178Z"/><path class="b" d="M500.611,37.729a.233.233,0,0,1-.154-.231.249.249,0,0,1,.253-.253.588.588,0,0,1,.176.044,1.9,1.9,0,0,0,.715.11c.616,0,.99-.407,1.353-1.243l.033-.077L500.479,30.9a.461.461,0,0,1-.044-.165.275.275,0,0,1,.286-.275c.165,0,.231.1.286.22l2.244,4.841,1.958-4.863a.276.276,0,0,1,.54.077.339.339,0,0,1-.033.143l-2.278,5.435c-.495,1.177-1.067,1.595-1.87,1.595A2.6,2.6,0,0,1,500.611,37.729Z"/><path class="a" d="M307.108,23.949a3.173,3.173,0,0,0,6.345,0V22.184a3.173,3.173,0,0,0-6.345,0"/><path class="c" d="M290.365,43.259a3.172,3.172,0,0,0,6.344,0V41.494a3.172,3.172,0,0,0-6.344,0"/><path class="a" d="M298.737,24.557a3.172,3.172,0,1,0,6.344,0v-5.2a3.172,3.172,0,1,0-6.344,0"/><path class="c" d="M298.7,46.4a3.172,3.172,0,0,0,6.344,0V41.2a3.172,3.172,0,0,0-6.344,0"/><path class="d" d="M290.084,27.466a3.172,3.172,0,1,0,6.344,0v-5.2a3.172,3.172,0,1,0-6.344,0"/><path class="e" d="M307.436,43.236a3.172,3.172,0,1,0,6.344,0v-5.2a3.172,3.172,0,1,0-6.344,0"/><path class="f" d="M312.827,45.515c3.28-3.89,1.326-9.474,1.326-9.474-1.506-4.429-8.529-6.267-8.529-6.267a47.6,47.6,0,0,1-8.049-2.7,15.562,15.562,0,0,1-6.69-6.94h.034c-3.28,3.89-1.326,9.474-1.326,9.474,1.731,4.433,8.529,6.267,8.529,6.267a61.636,61.636,0,0,1,8.049,2.695,15.566,15.566,0,0,1,6.691,6.941Z"/></g></svg>