<svg xmlns="http://www.w3.org/2000/svg" xmlns:xlink="http://www.w3.org/1999/xlink" viewBox="0 0 307.38 47"><defs><style>.cls-1{fill:none;}.cls-2{font-size:15.44px;font-family:GothamRounded-Book, Gotham Rounded;}.cls-2,.cls-5{fill:#fff;}.cls-3{letter-spacing:-0.02em;}.cls-4{letter-spacing:0em;}.cls-6{clip-path:url(#clip-path);}.cls-7{fill:url(#linear-gradient);}.cls-8{clip-path:url(#clip-path-2);}.cls-9{fill:url(#linear-gradient-2);}</style><clipPath id="clip-path"><path class="cls-1" d="M1.5,8.56v7.32a4.47,4.47,0,1,0,8.94,0V8.56a4.47,4.47,0,0,0-8.94,0"/></clipPath><linearGradient id="linear-gradient" x1="-1847.54" y1="1404.8" x2="-1847.39" y2="1404.8" gradientTransform="matrix(-67.88, 0, 0, 67.88, -125395.39, -95340.79)" gradientUnits="userSpaceOnUse"><stop offset="0" stop-color="#fff"/><stop offset="0" stop-color="#fff"/><stop offset="0.16" stop-color="#e0ecf6"/><stop offset="0.57" stop-color="#98bfe1"/><stop offset="0.86" stop-color="#6aa3d3"/><stop offset="1" stop-color="#5998ce"/></linearGradient><clipPath id="clip-path-2"><path class="cls-1" d="M25.93,30.76v7.32a4.47,4.47,0,0,0,8.94,0V30.76a4.47,4.47,0,0,0-8.94,0"/></clipPath><linearGradient id="linear-gradient-2" x1="-1846.4" y1="1372.27" x2="-1846.25" y2="1372.27" gradientTransform="matrix(0, -104.54, -104.54, 0, 143491.61, -192982.82)" gradientUnits="userSpaceOnUse"><stop offset="0" stop-color="#fff"/><stop offset="0.19" stop-color="#fff"/><stop offset="0.3" stop-color="#fafcfe"/><stop offset="0.43" stop-color="#ecf3f9"/><stop offset="0.56" stop-color="#d5e5f3"/><stop offset="0.71" stop-color="#b4d1e9"/><stop offset="0.85" stop-color="#8bb7dd"/><stop offset="1" stop-color="#5998ce"/></linearGradient></defs><title>ic_logo_navbar</title><g id="Layer_2" data-name="Layer 2"><g id="Layer_1-2" data-name="Layer 1"><text class="cls-2" transform="translate(179.16 29.27)">It&apos;s Smart Mon<tspan class="cls-3" x="110.36" y="0">e</tspan><tspan class="cls-4" x="119.16" y="0">y</tspan></text><path class="cls-5" d="M48.41,14a2.64,2.64,0,0,1,2.67-2.66h6.79c7.62,0,12.89,5.23,12.89,12v.07c0,6.82-5.27,12.12-12.89,12.12H51.08A2.64,2.64,0,0,1,48.41,33Zm9.46,16.77a6.92,6.92,0,0,0,7.31-7.24V23.5a7,7,0,0,0-7.31-7.31H53.75V30.81Z"/><path class="cls-5" d="M57.87,36.43H51.08A3.44,3.44,0,0,1,47.6,33V14a3.44,3.44,0,0,1,3.48-3.47h6.79c7.94,0,13.7,5.41,13.7,12.86v.07c0,7.49-5.76,12.93-13.7,12.93M51.08,12.18A1.84,1.84,0,0,0,49.22,14V33a1.84,1.84,0,0,0,1.86,1.85h6.79c7,0,12.08-4.75,12.08-11.31v-.07c0-6.52-5.08-11.25-12.08-11.25Zm6.79,19.44H52.94V15.38h4.93A7.77,7.77,0,0,1,66,23.5v.07a7.74,7.74,0,0,1-8.12,8.05M54.56,30h3.31a6.12,6.12,0,0,0,6.5-6.43V23.5a6.15,6.15,0,0,0-6.5-6.5H54.56Z"/><path class="cls-5" d="M73.77,13.9a2.65,2.65,0,0,1,2.67-2.66H77a3.28,3.28,0,0,1,2.77,1.56L90.05,26.31V13.8a2.64,2.64,0,0,1,5.27,0V33.09a2.65,2.65,0,0,1-2.67,2.67h-.17A3.3,3.3,0,0,1,89.7,34.2L79,20.21v13a2.64,2.64,0,0,1-5.27,0Z"/><path class="cls-5" d="M76.4,36.64A3.45,3.45,0,0,1,73,33.2V13.9a3.44,3.44,0,0,1,3.48-3.47H77A4.09,4.09,0,0,1,80.4,12.3l8.84,11.61V13.8a3.44,3.44,0,1,1,6.88,0V33.09a3.44,3.44,0,0,1-3.47,3.48h-.17a4.09,4.09,0,0,1-3.41-1.87L79.84,22.61V33.2a3.44,3.44,0,0,1-3.44,3.44m0-24.59a1.84,1.84,0,0,0-1.86,1.85V33.2a1.83,1.83,0,0,0,3.65,0V17.81l12.12,15.9A2.47,2.47,0,0,0,92.48,35h.17a1.84,1.84,0,0,0,1.86-1.86V13.8a1.83,1.83,0,0,0-3.65,0V28.7L79.12,13.29A2.47,2.47,0,0,0,77,12.05Z"/><path class="cls-5" d="M99.4,33V14a2.64,2.64,0,0,1,2.67-2.66h13.44a2.39,2.39,0,0,1,2.39,2.39,2.36,2.36,0,0,1-2.39,2.35H104.7V21H114a2.39,2.39,0,0,1,2.39,2.39A2.36,2.36,0,0,1,114,25.79H104.7v5.09h11a2.39,2.39,0,0,1,2.39,2.39,2.36,2.36,0,0,1-2.39,2.35H102.07A2.64,2.64,0,0,1,99.4,33"/><path class="cls-5" d="M115.68,36.43H102.07A3.44,3.44,0,0,1,98.59,33V14a3.44,3.44,0,0,1,3.48-3.47h13.44a3.18,3.18,0,1,1,0,6.36h-10v3.3H114a3.18,3.18,0,1,1,0,6.36h-8.44v3.48h10.17a3.18,3.18,0,1,1,0,6.36M102.07,12.18A1.84,1.84,0,0,0,100.21,14V33a1.84,1.84,0,0,0,1.86,1.85h13.61a1.56,1.56,0,0,0,1.59-1.54,1.59,1.59,0,0,0-1.59-1.58H103.89V25H114a1.55,1.55,0,0,0,1.58-1.55A1.58,1.58,0,0,0,114,21.85H103.89V15.31h11.62a1.56,1.56,0,0,0,1.58-1.54,1.59,1.59,0,0,0-1.58-1.59Z"/><path class="cls-5" d="M120.88,14a2.64,2.64,0,0,1,2.67-2.66H132c3.08,0,5.47.86,7.06,2.46a7.6,7.6,0,0,1,2.08,5.54v.07a7.38,7.38,0,0,1-4.85,7.37L140,31.33a3.1,3.1,0,0,1,.86,2,2.48,2.48,0,0,1-2.53,2.46,3.2,3.2,0,0,1-2.63-1.39l-5.19-6.58h-4.26v5.3a2.67,2.67,0,1,1-5.34,0Zm10.74,9.11c2.6,0,4.09-1.38,4.09-3.43v-.07c0-2.28-1.6-3.46-4.19-3.46h-5.3v7Z"/><path class="cls-5" d="M138.3,36.64a4,4,0,0,1-3.27-1.7l-4.95-6.27H127v4.49a3.48,3.48,0,1,1-7,0V14a3.44,3.44,0,0,1,3.48-3.47H132a10.51,10.51,0,0,1,7.63,2.69,8.41,8.41,0,0,1,2.32,6.12v.07a8.16,8.16,0,0,1-4.37,7.66l3,3.7a3.92,3.92,0,0,1,1,2.56,3.27,3.27,0,0,1-3.34,3.27m-12.89-9.59h5.46l5.44,6.89a2.36,2.36,0,0,0,2,1.08A1.67,1.67,0,0,0,140,33.37a2.34,2.34,0,0,0-.69-1.54l-4.39-5.34,1-.41a6.61,6.61,0,0,0,4.35-6.63v-.07a6.84,6.84,0,0,0-1.84-5A8.92,8.92,0,0,0,132,12.18h-8.42A1.84,1.84,0,0,0,121.69,14V33.16a1.86,1.86,0,1,0,3.72,0ZM131.62,24h-6.21V15.38h6.11c3.13,0,5,1.6,5,4.28v.06c0,2.58-1.93,4.24-4.9,4.24M127,22.34h4.59c2.08,0,3.28-.95,3.28-2.62v-.06c0-1.77-1.14-2.66-3.38-2.66H127Z"/><path class="cls-5" d="M143.12,23.57V23.5A12.54,12.54,0,0,1,156,11c7.48,0,12.85,5.58,12.85,12.47v.07A12.54,12.54,0,0,1,156,36c-7.48,0-12.85-5.58-12.85-12.47m20.19,0V23.5A7.36,7.36,0,0,0,156,15.88a7.25,7.25,0,0,0-7.27,7.55v.07A7.36,7.36,0,0,0,156,31.12a7.24,7.24,0,0,0,7.27-7.55"/><path class="cls-5" d="M156,36.85c-7.79,0-13.66-5.71-13.66-13.28V23.5A13.4,13.4,0,0,1,156,10.15c7.79,0,13.66,5.71,13.66,13.28v.07A13.4,13.4,0,0,1,156,36.85M156,11.77A11.8,11.8,0,0,0,143.93,23.5v.07c0,6.65,5.18,11.66,12,11.66A11.8,11.8,0,0,0,168.08,23.5v-.07c0-6.65-5.17-11.66-12-11.66m0,20.16a8.2,8.2,0,0,1-8.15-8.43v-.07A8,8,0,0,1,156,15.07a8.2,8.2,0,0,1,8.15,8.43v.07A8,8,0,0,1,156,31.93M156,16.69a6.46,6.46,0,0,0-6.46,6.74v.07A6.53,6.53,0,0,0,156,30.31a6.46,6.46,0,0,0,6.47-6.74V23.5A6.53,6.53,0,0,0,156,16.69"/><path class="cls-5" d="M25.47,10.93a4.47,4.47,0,1,0,8.93,0V8.45a4.47,4.47,0,1,0-8.93,0"/><path class="cls-5" d="M1.9,38.12a4.47,4.47,0,0,0,8.93,0V35.63a4.47,4.47,0,0,0-8.93,0"/><path class="cls-5" d="M13.69,11.79a4.47,4.47,0,0,0,8.93,0V4.47a4.47,4.47,0,1,0-8.93,0"/><path class="cls-5" d="M13.64,42.53a4.47,4.47,0,1,0,8.93,0V35.21a4.47,4.47,0,0,0-8.93,0"/><g class="cls-6"><rect class="cls-7" x="-2.43" y="7.23" width="16.81" height="9.99" transform="translate(-6.62 17.37) rotate(-86.19)"/></g><g class="cls-8"><rect class="cls-9" x="25.03" y="25.84" width="10.74" height="17.17" transform="translate(-3.76 3.73) rotate(-6.61)"/></g><path class="cls-5" d="M33.52,41.29C38.14,35.82,35.39,28,35.39,28c-2.12-6.23-12-8.82-12-8.82a66.7,66.7,0,0,1-11.33-3.79A21.94,21.94,0,0,1,2.63,5.56h.05C-1.94,11,.81,18.9.81,18.9c2.44,6.24,12,8.83,12,8.83a86.27,86.27,0,0,1,11.33,3.79,21.89,21.89,0,0,1,9.42,9.77Z"/></g></g></svg>